<svg xmlns="http://www.w3.org/2000/svg" version="1.1" xmlns:xlink="http://www.w3.org/1999/xlink" width="1000" height="1000"><g clip-path="url(#SvgjsClipPath1162)"><rect width="1000" height="1000" fill="#ffffff"></rect><g transform="matrix(14.893617021276595,0,0,14.893617021276595,150,261.70212765957444)"><svg xmlns="http://www.w3.org/2000/svg" version="1.1" xmlns:xlink="http://www.w3.org/1999/xlink" width="47" height="32"><svg width="47" height="32" viewBox="0 0 47 32" fill="none" xmlns="http://www.w3.org/2000/svg">
<path d="M24.4864 14.3284L32.9966 13.3731L41.4504 14.1692V12.8955L24.4864 6.36816V14.3284Z" fill="#C4EDD1"></path>
<path d="M46.9736 13.1609L24.4864 4.61692V0L45.621 8.22554C46.0719 8.34936 46.9736 8.85174 46.9736 9.87065V13.1609Z" fill="#C8EED1"></path>
<path d="M32.5457 15.1774L24.4864 15.9735V22.9784L32.5457 22.5008V15.1774Z" fill="#37AB8D"></path>
<path d="M32.5457 24.199L24.4864 24.6766V32H32.5457V24.199Z" fill="#35AA8C"></path>
<path d="M5.94428 25.791L16.0325 24.4643V32H5.94428V25.791Z" fill="#3995C6"></path>
<path fill-rule="evenodd" clip-rule="evenodd" d="M4.25351 19.2055V32H1.21012C0.353466 32 0.064154 31.0802 0.0265804 30.6202V16.9432C1.27862 17.776 2.71109 18.5689 4.25351 19.2055Z" fill="#459DCD"></path>
<path d="M4.25351 19.2055V12.3648C4.14079 12.1349 4.14079 11.6113 5.04253 11.3566L22.6265 4.61692V0L1.04104 8.33167C0.627743 8.49088 -0.153768 9.06401 0.0265804 10.0829V16.9432C1.27862 17.776 2.71109 18.5689 4.25351 19.2055Z" fill="#79CDD3"></path>
<path d="M22.6265 6.36816L5.94428 12.7363V16.6633L16.5398 13.6915C17.6219 13.4793 17.8548 14.2399 17.836 14.6468V18.6053C19.5522 17.4719 21.177 15.8086 22.6265 13.477V6.36816Z" fill="#76CAD4"></path>
<path d="M16.0325 19.5938V15.6551L5.94428 18.733V19.8221C9.1563 20.8386 12.7049 21.0693 16.0325 19.5938Z" fill="#59B6D2"></path>
<path d="M5.94428 23.9867L16.0325 22.7131V19.5938C12.7049 21.0693 9.1563 20.8386 5.94428 19.8221V23.9867Z" fill="#3797C1"></path>
<path d="M22.6265 32V13.477C21.177 15.8086 19.5522 17.4719 17.836 18.6053V32H22.6265Z" fill="#4EB2C5"></path>
<path fill-rule="evenodd" clip-rule="evenodd" d="M34.4056 15.1774L46.9736 16.3449V23.2438L34.4056 22.5008V15.1774ZM45.621 17.8839L40.0149 17.4594V18.9983L45.5381 19.4229L45.621 17.8839Z" fill="#83D29C"></path>
<path fill-rule="evenodd" clip-rule="evenodd" d="M46.9736 24.942L34.4056 24.199V32H45.7901C46.9623 32 47.0675 30.8679 46.9736 30.3018V24.942ZM40.0149 28.0199V26.2156L45.621 26.4809V28.2322L40.0149 28.0199Z" fill="#83D29C"></path>
</svg></svg></g></g><defs><clipPath id="SvgjsClipPath1162"><rect width="1000" height="1000" x="0" y="0" rx="250" ry="250"></rect></clipPath></defs></svg>