<svg width="134" height="21" viewBox="0 0 134 21" fill="none" xmlns="http://www.w3.org/2000/svg">
<path d="M15.6296 9.40298L21.0617 8.77612L26.4577 9.29851V8.46269L15.6296 4.1791V9.40298Z" fill="#C4EDD1"/>
<path d="M29.9832 8.63682L15.6296 3.02985V0L29.1198 5.39801C29.4076 5.47927 29.9832 5.80895 29.9832 6.47761V8.63682Z" fill="#C8EED1"/>
<path d="M20.7739 9.9602L15.6296 10.4826V15.0796L20.7739 14.7662V9.9602Z" fill="#37AB8D"/>
<path d="M20.7739 15.8806L15.6296 16.194V21H20.7739V15.8806Z" fill="#35AA8C"/>
<path d="M3.79422 16.9254L10.2335 16.0547V21H3.79422V16.9254Z" fill="#3995C6"/>
<path fill-rule="evenodd" clip-rule="evenodd" d="M2.715 12.6036V21H0.772418C0.225616 21 0.0409494 20.3964 0.0169662 20.0945V11.1189C0.816141 11.6655 1.73048 12.1859 2.715 12.6036Z" fill="#459DCD"/>
<path d="M2.715 12.6036V8.11443C2.64306 7.96352 2.64306 7.6199 3.21864 7.45274L14.4425 3.02985V0L0.664495 5.46766C0.400687 5.57214 -0.09815 5.94826 0.0169662 6.61692V11.1189C0.816141 11.6655 1.73048 12.1859 2.715 12.6036Z" fill="#79CDD3"/>
<path d="M14.4425 4.1791L3.79422 8.35821V10.9353L10.5573 8.98507C11.248 8.84577 11.3967 9.34494 11.3847 9.61194V12.2097C12.4801 11.466 13.5172 10.3744 14.4425 8.84427V4.1791Z" fill="#76CAD4"/>
<path d="M10.2335 12.8585V10.2736L3.79422 12.2935V13.0083C5.84444 13.6753 8.10954 13.8267 10.2335 12.8585Z" fill="#59B6D2"/>
<path d="M3.79422 15.7413L10.2335 14.9055V12.8585C8.10954 13.8267 5.84444 13.6753 3.79422 13.0083V15.7413Z" fill="#3797C1"/>
<path d="M14.4425 21V8.84427C13.5172 10.3744 12.4801 11.466 11.3847 12.2097V21H14.4425Z" fill="#4EB2C5"/>
<path fill-rule="evenodd" clip-rule="evenodd" d="M21.961 9.9602L29.9832 10.7264V15.2537L21.961 14.7662V9.9602ZM29.1198 11.7363L25.5414 11.4577V12.4677L29.0668 12.7463L29.1198 11.7363Z" fill="#83D29C"/>
<path fill-rule="evenodd" clip-rule="evenodd" d="M29.9832 16.3682L21.961 15.8806V21H29.2277C29.976 21 30.0431 20.257 29.9832 19.8856V16.3682ZM25.5414 18.3881V17.204L29.1198 17.3781V18.5274L25.5414 18.3881Z" fill="#83D29C"/>
<path d="M48.96 16.37V18H40.83V3.67H42.76V16.37H48.96ZM54.2308 7.71C54.9708 7.71 55.6374 7.83333 56.2308 8.08C56.8241 8.32667 57.3308 8.67667 57.7508 9.13C58.1708 9.58333 58.4908 10.1333 58.7108 10.78C58.9374 11.42 59.0508 12.1367 59.0508 12.93C59.0508 13.73 58.9374 14.45 58.7108 15.09C58.4908 15.73 58.1708 16.2767 57.7508 16.73C57.3308 17.1833 56.8241 17.5333 56.2308 17.78C55.6374 18.02 54.9708 18.14 54.2308 18.14C53.4841 18.14 52.8108 18.02 52.2108 17.78C51.6174 17.5333 51.1108 17.1833 50.6908 16.73C50.2708 16.2767 49.9474 15.73 49.7208 15.09C49.5008 14.45 49.3908 13.73 49.3908 12.93C49.3908 12.1367 49.5008 11.42 49.7208 10.78C49.9474 10.1333 50.2708 9.58333 50.6908 9.13C51.1108 8.67667 51.6174 8.32667 52.2108 8.08C52.8108 7.83333 53.4841 7.71 54.2308 7.71ZM54.2308 16.75C55.2308 16.75 55.9774 16.4167 56.4708 15.75C56.9641 15.0767 57.2108 14.14 57.2108 12.94C57.2108 11.7333 56.9641 10.7933 56.4708 10.12C55.9774 9.44667 55.2308 9.11 54.2308 9.11C53.7241 9.11 53.2808 9.19667 52.9008 9.37C52.5274 9.54333 52.2141 9.79333 51.9608 10.12C51.7141 10.4467 51.5274 10.85 51.4008 11.33C51.2808 11.8033 51.2208 12.34 51.2208 12.94C51.2208 14.14 51.4674 15.0767 51.9608 15.75C52.4608 16.4167 53.2174 16.75 54.2308 16.75ZM68.3584 9.67C68.3051 9.74333 68.2518 9.8 68.1984 9.84C68.1451 9.88 68.0718 9.9 67.9784 9.9C67.8784 9.9 67.7684 9.86 67.6484 9.78C67.5284 9.69333 67.3784 9.6 67.1984 9.5C67.0251 9.4 66.8084 9.31 66.5484 9.23C66.2951 9.14333 65.9818 9.1 65.6084 9.1C65.1084 9.1 64.6684 9.19 64.2884 9.37C63.9084 9.54333 63.5884 9.79667 63.3284 10.13C63.0751 10.4633 62.8818 10.8667 62.7484 11.34C62.6218 11.8133 62.5584 12.3433 62.5584 12.93C62.5584 13.5433 62.6284 14.09 62.7684 14.57C62.9084 15.0433 63.1051 15.4433 63.3584 15.77C63.6184 16.09 63.9284 16.3367 64.2884 16.51C64.6551 16.6767 65.0651 16.76 65.5184 16.76C65.9518 16.76 66.3084 16.71 66.5884 16.61C66.8684 16.5033 67.0984 16.3867 67.2784 16.26C67.4651 16.1333 67.6184 16.02 67.7384 15.92C67.8651 15.8133 67.9884 15.76 68.1084 15.76C68.2551 15.76 68.3684 15.8167 68.4484 15.93L68.9484 16.58C68.7284 16.8533 68.4784 17.0867 68.1984 17.28C67.9184 17.4733 67.6151 17.6367 67.2884 17.77C66.9684 17.8967 66.6318 17.99 66.2784 18.05C65.9251 18.11 65.5651 18.14 65.1984 18.14C64.5651 18.14 63.9751 18.0233 63.4284 17.79C62.8884 17.5567 62.4184 17.22 62.0184 16.78C61.6184 16.3333 61.3051 15.7867 61.0784 15.14C60.8518 14.4933 60.7384 13.7567 60.7384 12.93C60.7384 12.1767 60.8418 11.48 61.0484 10.84C61.2618 10.2 61.5684 9.65 61.9684 9.19C62.3751 8.72333 62.8718 8.36 63.4584 8.1C64.0518 7.84 64.7318 7.71 65.4984 7.71C66.2118 7.71 66.8384 7.82667 67.3784 8.06C67.9251 8.28667 68.4084 8.61 68.8284 9.03L68.3584 9.67ZM76.3492 13.44C75.5292 13.4667 74.8292 13.5333 74.2492 13.64C73.6759 13.74 73.2059 13.8733 72.8392 14.04C72.4792 14.2067 72.2159 14.4033 72.0492 14.63C71.8892 14.8567 71.8092 15.11 71.8092 15.39C71.8092 15.6567 71.8526 15.8867 71.9392 16.08C72.0259 16.2733 72.1426 16.4333 72.2892 16.56C72.4426 16.68 72.6192 16.77 72.8192 16.83C73.0259 16.8833 73.2459 16.91 73.4792 16.91C73.7926 16.91 74.0792 16.88 74.3392 16.82C74.5992 16.7533 74.8426 16.66 75.0692 16.54C75.3026 16.42 75.5226 16.2767 75.7292 16.11C75.9426 15.9433 76.1492 15.7533 76.3492 15.54V13.44ZM70.5992 9.3C71.1592 8.76 71.7626 8.35667 72.4092 8.09C73.0559 7.82333 73.7726 7.69 74.5592 7.69C75.1259 7.69 75.6292 7.78333 76.0692 7.97C76.5092 8.15667 76.8792 8.41667 77.1792 8.75C77.4792 9.08333 77.7059 9.48667 77.8592 9.96C78.0126 10.4333 78.0892 10.9533 78.0892 11.52V18H77.2992C77.1259 18 76.9926 17.9733 76.8992 17.92C76.8059 17.86 76.7326 17.7467 76.6792 17.58L76.4792 16.62C76.2126 16.8667 75.9526 17.0867 75.6992 17.28C75.4459 17.4667 75.1792 17.6267 74.8992 17.76C74.6192 17.8867 74.3192 17.9833 73.9992 18.05C73.6859 18.1233 73.3359 18.16 72.9492 18.16C72.5559 18.16 72.1859 18.1067 71.8392 18C71.4926 17.8867 71.1892 17.72 70.9292 17.5C70.6759 17.28 70.4726 17.0033 70.3192 16.67C70.1726 16.33 70.0992 15.93 70.0992 15.47C70.0992 15.07 70.2092 14.6867 70.4292 14.32C70.6492 13.9467 71.0059 13.6167 71.4992 13.33C71.9926 13.0433 72.6359 12.81 73.4292 12.63C74.2226 12.4433 75.1959 12.3367 76.3492 12.31V11.52C76.3492 10.7333 76.1792 10.14 75.8392 9.74C75.4992 9.33333 75.0026 9.13 74.3492 9.13C73.9092 9.13 73.5392 9.18667 73.2392 9.3C72.9459 9.40667 72.6892 9.53 72.4692 9.67C72.2559 9.80333 72.0692 9.92667 71.9092 10.04C71.7559 10.1467 71.6026 10.2 71.4492 10.2C71.3292 10.2 71.2259 10.17 71.1392 10.11C71.0526 10.0433 70.9792 9.96333 70.9192 9.87L70.5992 9.3ZM82.6406 3.27V18H80.8606V3.27H82.6406Z" fill="#35AA8C"/>
<path d="M93.4272 6.17C93.3472 6.31 93.2605 6.41333 93.1672 6.48C93.0805 6.54 92.9705 6.57 92.8372 6.57C92.6972 6.57 92.5439 6.52 92.3772 6.42C92.2172 6.31333 92.0239 6.19667 91.7972 6.07C91.5705 5.94333 91.3039 5.83 90.9972 5.73C90.6972 5.62333 90.3405 5.57 89.9272 5.57C89.5539 5.57 89.2272 5.61667 88.9472 5.71C88.6672 5.79667 88.4305 5.92 88.2372 6.08C88.0505 6.24 87.9105 6.43333 87.8172 6.66C87.7239 6.88 87.6772 7.12333 87.6772 7.39C87.6772 7.73 87.7705 8.01333 87.9572 8.24C88.1505 8.46667 88.4039 8.66 88.7172 8.82C89.0305 8.98 89.3872 9.12333 89.7872 9.25C90.1872 9.37667 90.5972 9.51333 91.0172 9.66C91.4372 9.8 91.8472 9.96667 92.2472 10.16C92.6472 10.3467 93.0039 10.5867 93.3172 10.88C93.6305 11.1667 93.8805 11.52 94.0672 11.94C94.2605 12.36 94.3572 12.87 94.3572 13.47C94.3572 14.1233 94.2439 14.7367 94.0172 15.31C93.7972 15.8767 93.4705 16.3733 93.0372 16.8C92.6105 17.22 92.0872 17.5533 91.4672 17.8C90.8472 18.04 90.1372 18.16 89.3372 18.16C88.8772 18.16 88.4239 18.1133 87.9772 18.02C87.5305 17.9333 87.1005 17.8067 86.6872 17.64C86.2805 17.4733 85.8972 17.2733 85.5372 17.04C85.1772 16.8067 84.8572 16.5467 84.5772 16.26L85.3672 14.97C85.4339 14.8767 85.5205 14.8 85.6272 14.74C85.7339 14.6733 85.8472 14.64 85.9672 14.64C86.1339 14.64 86.3139 14.71 86.5072 14.85C86.7005 14.9833 86.9305 15.1333 87.1972 15.3C87.4639 15.4667 87.7739 15.62 88.1272 15.76C88.4872 15.8933 88.9172 15.96 89.4172 15.96C90.1839 15.96 90.7772 15.78 91.1972 15.42C91.6172 15.0533 91.8272 14.53 91.8272 13.85C91.8272 13.47 91.7305 13.16 91.5372 12.92C91.3505 12.68 91.1005 12.48 90.7872 12.32C90.4739 12.1533 90.1172 12.0133 89.7172 11.9C89.3172 11.7867 88.9105 11.6633 88.4972 11.53C88.0839 11.3967 87.6772 11.2367 87.2772 11.05C86.8772 10.8633 86.5205 10.62 86.2072 10.32C85.8939 10.02 85.6405 9.64667 85.4472 9.2C85.2605 8.74667 85.1672 8.19 85.1672 7.53C85.1672 7.00333 85.2705 6.49 85.4772 5.99C85.6905 5.49 85.9972 5.04667 86.3972 4.66C86.7972 4.27333 87.2905 3.96333 87.8772 3.73C88.4639 3.49667 89.1372 3.38 89.8972 3.38C90.7505 3.38 91.5372 3.51333 92.2572 3.78C92.9772 4.04667 93.5905 4.42 94.0972 4.9L93.4272 6.17ZM99.2845 18.16C98.3912 18.16 97.7045 17.91 97.2245 17.41C96.7512 16.9033 96.5145 16.2067 96.5145 15.32V9.59H95.4645C95.3312 9.59 95.2179 9.54667 95.1245 9.46C95.0312 9.37333 94.9845 9.24333 94.9845 9.07V8.09L96.6345 7.82L97.1545 5.02C97.1879 4.88667 97.2512 4.78333 97.3445 4.71C97.4379 4.63667 97.5579 4.6 97.7045 4.6H98.9845V7.83H101.725V9.59H98.9845V15.15C98.9845 15.47 99.0612 15.72 99.2145 15.9C99.3745 16.08 99.5912 16.17 99.8645 16.17C100.018 16.17 100.145 16.1533 100.245 16.12C100.351 16.08 100.441 16.04 100.515 16C100.595 15.96 100.665 15.9233 100.725 15.89C100.785 15.85 100.845 15.83 100.905 15.83C100.978 15.83 101.038 15.85 101.085 15.89C101.131 15.9233 101.181 15.9767 101.235 16.05L101.975 17.25C101.615 17.55 101.201 17.7767 100.735 17.93C100.268 18.0833 99.7845 18.16 99.2845 18.16ZM107.768 7.58C108.528 7.58 109.218 7.70333 109.838 7.95C110.464 8.19667 110.998 8.54667 111.438 9C111.884 9.45333 112.228 10.0067 112.468 10.66C112.708 11.3133 112.828 12.0433 112.828 12.85C112.828 13.6633 112.708 14.3967 112.468 15.05C112.228 15.7033 111.884 16.26 111.438 16.72C110.998 17.18 110.464 17.5333 109.838 17.78C109.218 18.0267 108.528 18.15 107.768 18.15C107.001 18.15 106.304 18.0267 105.678 17.78C105.051 17.5333 104.514 17.18 104.068 16.72C103.628 16.26 103.284 15.7033 103.038 15.05C102.798 14.3967 102.678 13.6633 102.678 12.85C102.678 12.0433 102.798 11.3133 103.038 10.66C103.284 10.0067 103.628 9.45333 104.068 9C104.514 8.54667 105.051 8.19667 105.678 7.95C106.304 7.70333 107.001 7.58 107.768 7.58ZM107.768 16.25C108.621 16.25 109.251 15.9633 109.658 15.39C110.071 14.8167 110.278 13.9767 110.278 12.87C110.278 11.7633 110.071 10.92 109.658 10.34C109.251 9.76 108.621 9.47 107.768 9.47C106.901 9.47 106.258 9.76333 105.838 10.35C105.424 10.93 105.218 11.77 105.218 12.87C105.218 13.97 105.424 14.81 105.838 15.39C106.258 15.9633 106.901 16.25 107.768 16.25ZM122.062 9.91C121.989 10.0033 121.916 10.0767 121.842 10.13C121.776 10.1833 121.676 10.21 121.542 10.21C121.416 10.21 121.292 10.1733 121.172 10.1C121.052 10.02 120.909 9.93333 120.742 9.84C120.576 9.74 120.376 9.65333 120.142 9.58C119.916 9.5 119.632 9.46 119.292 9.46C118.859 9.46 118.479 9.54 118.152 9.7C117.826 9.85333 117.552 10.0767 117.332 10.37C117.119 10.6633 116.959 11.02 116.852 11.44C116.746 11.8533 116.692 12.3233 116.692 12.85C116.692 13.3967 116.749 13.8833 116.862 14.31C116.982 14.7367 117.152 15.0967 117.372 15.39C117.592 15.6767 117.859 15.8967 118.172 16.05C118.486 16.1967 118.839 16.27 119.232 16.27C119.626 16.27 119.942 16.2233 120.182 16.13C120.429 16.03 120.636 15.9233 120.802 15.81C120.969 15.69 121.112 15.5833 121.232 15.49C121.359 15.39 121.499 15.34 121.652 15.34C121.852 15.34 122.002 15.4167 122.102 15.57L122.812 16.47C122.539 16.79 122.242 17.06 121.922 17.28C121.602 17.4933 121.269 17.6667 120.922 17.8C120.582 17.9267 120.229 18.0167 119.862 18.07C119.502 18.1233 119.142 18.15 118.782 18.15C118.149 18.15 117.552 18.0333 116.992 17.8C116.432 17.56 115.942 17.2133 115.522 16.76C115.102 16.3067 114.769 15.7533 114.522 15.1C114.282 14.44 114.162 13.69 114.162 12.85C114.162 12.0967 114.269 11.4 114.482 10.76C114.702 10.1133 115.022 9.55667 115.442 9.09C115.862 8.61667 116.382 8.24667 117.002 7.98C117.622 7.71333 118.336 7.58 119.142 7.58C119.909 7.58 120.579 7.70333 121.152 7.95C121.732 8.19667 122.252 8.55 122.712 9.01L122.062 9.91ZM126.831 3.14V11.65H127.291C127.457 11.65 127.587 11.63 127.681 11.59C127.781 11.5433 127.881 11.4533 127.981 11.32L130.531 8.17C130.637 8.03 130.754 7.92333 130.881 7.85C131.014 7.77667 131.184 7.74 131.391 7.74H133.651L130.461 11.55C130.234 11.85 129.987 12.08 129.721 12.24C129.861 12.34 129.984 12.4567 130.091 12.59C130.204 12.7233 130.311 12.8667 130.411 13.02L133.831 18H131.601C131.407 18 131.241 17.97 131.101 17.91C130.961 17.8433 130.844 17.7267 130.751 17.56L128.131 13.67C128.037 13.5167 127.941 13.4167 127.841 13.37C127.741 13.3233 127.591 13.3 127.391 13.3H126.831V18H124.361V3.14H126.831Z" fill="#3797C1"/>
</svg>
